<svg id="Layer_1" data-name="Layer 1" xmlns="http://www.w3.org/2000/svg" viewBox="0 0 912.88 818.28"><defs><style>.cls-1{fill:#013632;}.cls-2{fill:#010101;}.cls-3{fill:#8abec4;}.cls-4{fill:#c4e82d;}.cls-5{fill:#98b100;}.cls-6{fill:#02817d;}.cls-7{fill:#01817d;}.cls-8{fill:#98b101;}.cls-9{fill:#c4e72c;}.cls-10{fill:#97b002;}.cls-11{fill:#97b102;}.cls-12{fill:#03807b;}.cls-13{fill:#a0bd01;}.cls-14{fill:#95ae06;}.cls-15{fill:#018a88;}.cls-16{fill:#a1bd02;}.cls-17{fill:#d1f72e;}.cls-18{fill:#cef22e;}.cls-19{fill:#02665f;}.cls-20{fill:#055853;}.cls-21{fill:#c6eb2d;}.cls-22{fill:#d2f831;}.cls-23{fill:#028a87;}.cls-24{fill:#00b6ba;}.cls-25{fill:#03acab;}.cls-26{fill:#01b5b8;}</style></defs><path class="cls-1" d="M489.77,35.43c-.89-1.48-2.89-.45-3.87-1.73,3.12-.18,6.27-.63,10.21.91C493.43,35.93,491.59,35.56,489.77,35.43Z"/><path class="cls-2" d="M100.93,395.53c0-203.66,165.51-369.16,369.17-369.09s369.1,165.64,369,369.27S673.24,764.81,469.65,764.55,101,599,100.93,395.53Z"/><path class="cls-3" d="M403.05,39.72c14.48-2.62,29-4.79,43.76-5.32,1.62-.55,3.29-.25,4.95-.27.49,0,1,.14,1.35,1.22-2.18,2.2-5.37,2.53-8.25,3.32a34.62,34.62,0,0,0-13.36,6.47C425,50.5,424.35,58.58,429.88,65a34.57,34.57,0,0,0,5.66,5.62c9.36,6.66,9.45,16.59,9.3,26.45,0,3.29-.71,6.62-.69,9.94.09,10.44,9,17.19,19,14.55a40.76,40.76,0,0,0,17.55-10.12,110.93,110.93,0,0,0,13.52-14.65c5.54-7.45,13.2-10.84,22-12.44s17.47-2.33,26.13-4c10.9-2.13,21.18-5.64,29.94-12.85,3.94-3.24,7.17-6.88,8.95-11.74.63-1.71.81-4.28,3.86-3.3A295.76,295.76,0,0,1,623,67.56c-.13,2.73-2.38,2.88-4.24,3.27-21.32,4.54-37,17.62-50.52,33.73-4.48,5.31-6.26,11.2-3.59,18.1,1.23,3.17-.53,5-4,4.69a14.14,14.14,0,0,1-7.17-3.31,60.22,60.22,0,0,1-7.43-7.38c-10.49-11.39-23.57-10.42-31.5,2.78a36,36,0,0,0-3.27,31.73c2.72,7.54,8.23,12.35,16.65,13.2,3.78.38,7.69.37,11.22,2.13,2.15,1.07,4.3,2.4,4.26,5.06S541,175,539,175.88a34.51,34.51,0,0,1-6.22,1.86,94,94,0,0,0-11,3.17c-8.45,3.24-15.86,7.84-17.12,17.69-1.46,11.42.74,22,10.07,29.89,5.5,4.65,5.64,4.54-.19,9.11-8.52,6.69-14.86,15.23-20.46,24.34-11.44,18.56-20.21,38.3-24.93,59.66-5.75,26-5.58,51.9,3.6,77.27a83.21,83.21,0,0,0,11.37,21.58c11.18,15,26.6,19.79,44.45,18.32a151.62,151.62,0,0,0,30.8-6.23A77.36,77.36,0,0,1,575,429.25c9.89-.82,12.56,1.2,13.93,11.1,1,7.08,1.56,14.22,2.39,21.33a219.79,219.79,0,0,0,3.78,23.66,52.77,52.77,0,0,0,9.07,20.38c3,4,3.43,8.39,2.44,13.27-2.48,12.25-7.14,24-8.69,36.42-1.42,11.34-.75,22.24,4.3,33.12,7,15.12,11.16,31.34,14,47.81.48,2.74-.51,4.45-2.89,5.67a29.89,29.89,0,0,1-6.49,2.55,16.91,16.91,0,0,0-5.08,1.83,13.23,13.23,0,0,1-1.51.61,360.3,360.3,0,0,1-88.65,21.34c-20.49,2.3-41.07,3.64-61.76,1.75-8.44-.76-16.94-1-25.33-2.25-5-.75-6-2.15-4.79-7.14,2.68-11.58,8.21-21.76,15.62-31,2.2-2.72,4.43-5.41,6.46-8.25,8.12-10.86,13.83-22.74,15.19-36.42,1.3-13.14,5-25.79,7.82-38.63,2.72-12.54,4.76-25.11,3-38.09-2.23-16.2-10.5-27.46-25.8-33.2-7.49-2.81-14.91-5.77-22.38-8.62-9.08-3.45-15.69-9.15-18.53-18.78-4.1-13.92-12.95-24-25.06-31.81-9-5.75-16.7-13.23-25.32-19.5-7.77-5.64-16.07-10-25.84-11.18-5.42-.65-10.62.44-15.83,1.34-11.16,1.94-22,5.23-33.16,7.38a52.42,52.42,0,0,1-12.43.74c-5-.24-7.21-2-8.63-6.79-1.56-5.22-1.42-10.55-.71-15.85.57-4.29,1-8.6,1.44-12.9.73-7.88-1.73-14.37-9-18.55-4-2.32-4.17-5-.86-8.38,4.23-4.31,11.92-4.25,16.68.28,6.63,6.32,12.8,13.09,19.93,18.9a57.47,57.47,0,0,0,14.43,8.84c9.66,4,18.19,1.24,23.75-7.6A36.09,36.09,0,0,0,325,343.8c2.58-8.85-.43-15.48-8.83-19.17a77.06,77.06,0,0,0-11.37-3.81c-3.06-.8-6.15-1.51-9.2-2.34-12.22-3.32-12.19-3.32-10.24-15.9.87-5.63-.48-11-2.82-16-2.87-6.13-2-11.52,1.92-16.83,9.48-12.88,20.81-24.32,29.24-38,14.74-23.87,36.75-39.51,60.17-53.62a402.94,402.94,0,0,1,43.3-22.77c8.18-3.66,9.32-9.16,3.79-16.3-9-11.6-18.49-22.72-29.92-32.06-1.32-1.08-3.55-2.11-2.78-4.24.61-1.7,2.81-1.47,4.4-1.77,4.58-.87,9.22-1.46,13.62-3.09,9.45-3.5,12.78-11.87,8.52-20.94a33.89,33.89,0,0,0-8.29-10.51c-2.85-2.62-4.12-5.53-2.74-9.35,1.56-4.35.63-8.5-1-12.65C402.17,43,400.51,41.14,403.05,39.72Z"/><path class="cls-4" d="M583.68,129.41l4.48-5.88a12.45,12.45,0,0,1,3.71-6.35C604.81,104,619.55,95,638.83,95c11.45,0,22.88-.36,34.24,1.42,13.57,8.21,25.67,18.36,37.48,28.84a360,360,0,0,1,73.38,90.16c1.49,2.59,2.71,5.32,4.05,8,7.18,17.18,12.62,35,18.94,52.47.77,2.12,2.06,4.27,1,6.7-4.21-1.21-7.72-3.77-11.41-6-6.86-4.08-10.73-3.06-14.45,4-3.53.7-5.81-1.9-8.57-3.24-1.66-.81-3.44-2.07-5-.28-1.77,2.1,0,3.74,1.44,5.09,3.66,3.43,8,5.9,12.24,8.53,6.92,4.3,14.09,8.18,20.85,12.73,9.32,6.28,10.33,11.7,4.47,21.38-3.54,5.86-8.82,9.95-14,14a143.75,143.75,0,0,1-23.05,14.77c-1.69.85-3.39,2.34-5.54,1A57,57,0,0,1,760,339a47.78,47.78,0,0,0-13.17-24.64c-3.68-3.82-7.64-7.37-11.35-11.17-4.13-4.22-8.8-5.72-14.43-3.47-2.68-.73-5.23-3.94-8.15-1s-1.12,6.27.23,9.23a65.53,65.53,0,0,0,4.9,8.61c5.3,9.43,13,16.93,19.87,25.16A37.9,37.9,0,0,1,743.27,358c.23,2,.67,3.92,1,5.87.74,4.44,2.25,8.07,7.75,7.76a2.25,2.25,0,0,1,1.67,1c.85,3.87,1.4,7.84,2.61,11.59,2.41,7.42,7.06,9.81,14.62,7.82,4.31-1.14,8.56-2.49,12.84-3.75,3.06,1.52,1.17,3.61.3,5.14a62.34,62.34,0,0,1-10.52,13.88,278.35,278.35,0,0,0-20.82,22.88c-9.13,11.12-13.42,23.93-13.49,38.28,0,6.67.49,13.28,1,19.92a82.62,82.62,0,0,1-8.07,43.17c-5.87,12-11,24.24-16,36.61-4.63,11.69-12.41,21.13-20.2,30.7a302.58,302.58,0,0,1-33.7,34.69,27.64,27.64,0,0,1-7.46,4.91c-6.59,2.85-12,1.29-16.15-4.58-4.29-6-5.83-13-7-20.11-2.86-17.59-5.93-35.12-11.06-52.23-1.63-5.44-3.77-10.68-5.67-16-.72-2-1.76-4-1.18-6.23,1.29-5.29,2.65-10.57,3.86-15.89,1.52-6.67,2.13-13.36-.63-19.91-.23-3.9,1-7.58,1.87-11.28,1.87-7.68,1.19-14.83-3.66-21.37-5.3-7.14-5.94-15.8-7.37-24.11-1.59-9.34-2.33-18.81-3.28-28.25a26.93,26.93,0,0,0-1.83-8.25,11.4,11.4,0,0,0-10.32-7.38c-8.39-.64-16.11,2.14-24,4.15a172.71,172.71,0,0,1-19.52,4.13c-16.57,2.29-30.4-4.77-38-19.66-11.71-23-13.79-47.35-9.11-72.42,4.4-23.58,13.78-45.08,27.37-64.83,6-8.7,14-14.5,23.61-18.49A112.66,112.66,0,0,1,583,227.66a25.79,25.79,0,0,1,8.45.3c6,1.33,7.41,3,7.62,9.14.38,10.79,4.49,15.4,15.35,17.43,7.07,1.32,14.26,1.2,21.39,1.75,22.73,1.77,45.43,3.58,67.89,7.9,16.34,3.15,26.27-7,23.42-23.39-1.24-7-6.06-10.79-12.26-13.23-6.71-2.65-13.87-3.41-20.88-4.77a49.84,49.84,0,0,1-15-5.12c-6.52-3.61-13.35-4.25-20-.43-3.19,1.83-5,1-7-1.71-3.92-5.38-8-10.63-12.19-15.82a42.94,42.94,0,0,0-5.91-6.07c-6.32-5.26-11.59-3.47-13.63,4.44a46.55,46.55,0,0,1-2.1,7.14c-1.78,4.05-3.88,4.51-6.58,1.2-10.95-13.41-26-14.55-41.34-6.23a84.57,84.57,0,0,0-16.8,12.45c-4.71,4.32-9.82,7.94-16.38,8.85-8.1-9.05-5.08-22.78,6-27.13,4.34-1.7,8.91-2.69,13.36-4a19.72,19.72,0,0,0,6.7-3.23c4.34-3.41,4.61-8.92,1-13.12-2.33-2.72-6.08-3.47-8.19-6.37-3.07-8.37-10.35-11.42-17.86-14.17-3-7,1.65-18.73,8-20a34.86,34.86,0,0,0,15,6.07c3.49,2.18,6.32,5.32,10.38,6.69,3.87,1.3,7.55,1.49,10.75-1.34s3-6.44,1.95-10.12C583.51,133,583,131.25,583.68,129.41Z"/><path class="cls-4" d="M316,140.67c10.26-5.37,17.18-14.35,24.62-22.76,1.86-2.11,3.74-4.2,5.6-6.3,2.87-1.85,5.47-.16,8,.81,6.62,2.54,11.85,7.09,17,11.89,8.28,7.75,15.14,16.64,21.68,25.82.66.93,1.44,1.88,1,3.17-18.73,10.12-37.27,20.55-54.18,33.6-13.66,10.55-25.8,22.44-34.91,37.31-6.44,10.51-14.44,19.92-22.39,29.32a100.91,100.91,0,0,0-10.16,13.56C268,274.21,267.43,281.57,271,289c2.87,6,3.09,12,1.5,18.44-2.7,10.88-.14,15.73,10.55,19.44,7.2,2.5,14.63,4.36,22,6.5,7.54,3.32,8.36,5.45,5.13,13.32-1.87,4.13-5,4.31-8.75,2.91-5.09-1.9-9.36-5.11-13.3-8.68q-9.63-8.73-18.87-17.87c-7.29-7.19-15.77-7.33-24.53-4s-13.25,10.28-13.89,19.59c-.43,6.26,1.43,9.73,7.44,11.33,5.75,1.52,6.2,5,5.6,9.75-1.12,8.92-2.53,17.82-1.26,26.86,1,6.9,3.82,12.69,9.46,16.95,0,.88-.16,1.48-1.23,1-3.58-1.71-7-3.82-11.09-4.22a5.17,5.17,0,0,1-4.4-3.59,43.85,43.85,0,0,1-2-5.65c-4-16.25-15.16-23.82-31.06-25.76-9.88-1.2-19.88-1.87-29.18-5.94-9.72-5.72-13.6-14.91-15.43-25.48a53.12,53.12,0,0,1,.18-16.84c3.08-21.43-5.17-39-18.48-54.85-1.45-1.73-3.7-3-3.38-5.76,8.87-22.7,20.69-43.83,34.37-63.91A362,362,0,0,1,293.86,79.36c1.29-.73,2.67-1.31,4-2a59,59,0,0,1,28.12.43c2.52.63,5.31,1.2,5.93,4.47-6.82,4.14-14.38,6.66-21.69,9.75a74.11,74.11,0,0,0-12.85,6.42c-8.78,5.93-11.31,12.9-8.28,23,0,7.47,3.07,13.86,7.31,19.73,4.1,5.67,8.15,6.38,14.11,2.8C312.35,142.93,314.24,141.9,316,140.67Z"/><path class="cls-4" d="M250.79,404.6l1.23-1c7.59,4,15.65,4,23.73,2.29,11.66-2.41,23.26-5.18,34.9-7.73a50.77,50.77,0,0,1,5.39-.6c3.31.49,6.63,0,9.95,0a4.24,4.24,0,0,1,3.07.74c5.73,3.14,10.53,7.43,15.23,11.93,6.25,6,13.19,11.19,19.78,16.79a34.48,34.48,0,0,1,11.62,18.25c3.7,15.34,13.55,24.26,28,29.08,4.42,1.47,8.62,3.54,12.87,5.44,11.17,5,16.23,14.18,17.71,25.87,1.29,10.19.34,20.3-1.62,30.23-3.21,16.16-6.46,32.28-8.54,48.65-1.4,11-6.79,20.61-13.31,29.26-9.73,12.93-15.74,27.3-19.26,42.92-1.35,6-4.77,10.66-9,15.22-15.69,17.12-26.83,36.75-31.16,59.87-.32,1.72.49,4.2-2.41,4.64-8.73-2.65-17-6.42-25.43-9.89-2.07-.85-2.56-2.28-2.9-4.15a205.2,205.2,0,0,1-3.58-40,53.93,53.93,0,0,0,0-15c-.39-16,1.71-31.88,3.45-47.72,2.76-25.14-4.49-45.53-25.62-60.38-5-3.53-9.48-7.85-14.3-11.67-19.51-15.48-26.06-36-24.13-60.17,1.52-19.11,4.89-37.9,9-56.58a14.76,14.76,0,0,0-2-11.77A61.5,61.5,0,0,0,250.79,404.6Z"/><path class="cls-3" d="M443.07,621.48c-3.33,6.95-9.55,11.8-13.26,18.53a86.94,86.94,0,0,0-9.07,22.52c-.63,2.72,0,3.65,2.63,3.9,5.77.57,11.51,1.53,17.29,1.89,13.76.85,27.56,1.72,41.35,1,32-1.67,63.65-6.14,94.35-15.86,8.23-2.6,16.41-5.34,24.61-8,5.13.61,9.33-2.48,14-3.65,2.23-.56,2.3-3.34,2.66-5.5.28-1.75-.55-4.13,2.2-4.79,3.48,14.28,4.25,29.14,9.06,43.12,6.75,19.66,19.77,23.47,35.77,10.26,19.58-16.16,36.75-34.71,52.59-54.5,6.83-8.53,11.12-18.53,15.25-28.52,4.32-10.47,8.87-20.81,14.12-30.84,7.65-14.61,11.52-30,10.57-46.6-.24-4.31-.15-8.64-.21-13,.22-7.64,0-15.29,0-22.94.57-14.85,8-26.56,17.56-37,8.53-9.33,17.69-18.07,26.27-27.35,6.25-6.76,11.39-14.3,13.37-23.59,2.43-11.36-4.22-20.18-15.83-21.09-8-.62-15.52,1.24-23,3.74-11.38,3.82-12,3.48-14.11-8.39-.7-3.89-1.08-7.85-1.62-11.79,1.4-.64,1.63.67,2.13,1.36,7.18,9.9,15.7,12.27,26.53,6.76,13.08-6.64,25.63-14.17,37-23.52.84-.69,1.43-1.92,3.31-1.59.37,3.09.75,6.31,1.13,9.53-1.13.15-2.34-.17-3.38.57A252.25,252.25,0,0,1,801,372.43a34.4,34.4,0,0,1,9.66,3.57c9.07,5.21,12.94,15.42,10.54,25.66-2.92,12.47-10,22.3-18.51,31.36s-18,17.29-26.05,26.87c-12,14.25-14.73,30.89-13,48.72.26,2.55.16,5.23,1.23,8.3,6.35-7.53,11.11-15.48,16-23.35a371.62,371.62,0,0,0,35.24-75.88c5.26-15.49,8.67-31.35,12.08-47.27.78-3.67-.83-7.73,1.85-11.05,1.72,6.16,1.26,12.55,1.55,18.8a356.62,356.62,0,0,1-3.79,72.69C819.12,506,799,556.7,766.85,602.36q-67.8,96.28-179.1,135.43a352,352,0,0,1-95.13,18.92,372,372,0,0,1-120.1-12.4c-5.3-1.42-5.37-3.77-4-7.95a126.11,126.11,0,0,1,34.43-54.22c5.73-5.34,10-11.22,11.5-18.78,3.55-18.16,13.65-32.64,25.36-46.27A4.49,4.49,0,0,1,443.07,621.48Z"/><path class="cls-3" d="M109.94,359.37a336.72,336.72,0,0,1,16.17-76.83c2-2.47,2.81-.28,3.39,1.11,3.48,8.22,5.79,16.65,4.46,25.74-1.05,7.07-1.7,14.07-.77,21.33,1.8,14.06,8.63,24.59,20.2,32.34,12.25,8.22,26.2,11.22,40.5,13.11,4.78.62,9.6,1,14.25,2.45,6.35,2,10.6,6,12.64,12.4.81,2.54,1.72,5.05,2.55,7.58,2.3,7,6.76,11.72,14.16,13.37,6.62,1.49,11,5.89,14.63,11.31a9.42,9.42,0,0,1,1.45,7.59c-3.43,15.8-6.54,31.68-7.76,47.8-.94,12.42-1.47,25,1,37.33,3.26,16.08,12.35,28.51,24.5,39,7.05,6.11,14.28,12,21.58,17.8,14.11,11.22,18,26.2,16.13,43.29-.34,3.15-.61,6.29-.79,9.45-.29,5.13-2.09,6.24-6.76,4a278.88,278.88,0,0,1-31.12-18q-86.77-56.73-131.74-150.2a345.18,345.18,0,0,1-27.78-82.67A57.21,57.21,0,0,1,109.94,359.37Z"/><path class="cls-3" d="M109.94,359.37c1.31,26.4,9.9,51,18.85,75.5,8.7,23.81,20.47,46.13,34.22,67.36a361.38,361.38,0,0,0,46.39,57.7,365.53,365.53,0,0,0,62.78,51.2c9.79,6.28,19.8,12.2,30.15,17.54,3.48,1.8,4.72,1.28,4.7-2.73,0-9.42,2-18.75.14-28.28-2.36-12-10.05-19.91-19-27.08-11.77-9.45-23.91-18.47-32.78-31a61.27,61.27,0,0,1-11-30.57,170.87,170.87,0,0,1,.34-32.37,409.76,409.76,0,0,1,8-47.5,5.16,5.16,0,0,0-1-4.21c-3.74-5.64-8-10.51-15.24-11.86-7.65-1.42-12.82-6.55-14.17-13.84-3.06-16.62-14.2-20.59-29.06-21.95-18.91-1.74-37-6.76-50.53-21.66-6.2-6.85-9.37-15-10.77-24.19-1.22-8.06,0-15.8,1-23.7,1.12-8.83-1.83-17.05-5-25.11-.3-.75-1.14-.27-1.73,0l3.07-9.23c8.21,13.51,11.1,26.87,8.78,41.73-3.81,24.41,7.23,42.19,30.46,50.7,10.41,3.81,21.23,5.56,32.17,6.62,14.57,1.43,21.56,6.75,25.68,20.91,2.26,7.77,5.93,13,14.67,14.9s13.61,9.62,17.76,17.19c.77,1.39,0,2.91-.31,4.38-4.43,21-8.4,42.12-9,63.64-.61,22.18,5.79,41.62,23.21,56.63,7.06,6.09,14.09,12.23,21.54,17.84,16.51,12.44,21.5,29.34,19.47,49-2.64,25.68-4.88,51.39-3.43,77.24.5,8.93,1.7,17.81,2.64,27.29a282.32,282.32,0,0,1-31.31-17Q193.9,650.34,147,558.72A355.28,355.28,0,0,1,110.8,440.47c-3.27-26.06-3.23-52.13-1.61-78.26A14.53,14.53,0,0,1,109.94,359.37Z"/><path class="cls-5" d="M613.78,539.27c10.56,24.1,15.49,49.62,19.35,75.45a46.34,46.34,0,0,0,4.58,15.21c5.21,9.72,13.23,11.67,21.58,4.48,13.75-11.84,25.88-25.25,37.92-38.85,12.86-14.52,19.25-32,26.62-49.25,3.66-8.55,8.27-16.68,11.23-25.56,4.18-12.55,4.53-25.32,3.16-38.37-2.38-22.53,2.61-42.68,18.77-59.71,8.77-9.24,18.72-17.56,25.32-28.76,1-1.76,2.85-3.29,1.45-5.67A31.48,31.48,0,0,1,798,386.53c7.55.81,10.84,5.46,9.2,12.82-1.68,7.56-5.92,13.78-11,19.31-8.11,8.82-16.52,17.38-25,25.88-17.83,17.93-24.32,39.72-21.71,64.41,2.4,22.77-.41,44.24-11.84,64.65-7,12.43-11.87,26-17.84,39a72.29,72.29,0,0,1-10.15,16c-15,18.12-31,35.25-49,50.44-12.14,10.22-19.5,8.37-24.93-6.48-4.38-12-5-24.75-7.54-37.11-4-19.43-9-38.57-17.25-56.69-3-6.53-2.56-13.38-1.7-20.14A87,87,0,0,1,613.78,539.27Z"/><path class="cls-6" d="M443.07,621.48q-1.65-2.19-3.28-4.39c6-9.84,11.77-19.87,12.67-31.66,1.48-19.68,9.06-38.16,11-57.75a72.89,72.89,0,0,0-.88-22.84q-4.15-19.08-22.61-25.76c-8.43-3.07-16.79-6.37-25.12-9.69-8.91-3.56-15-10-17.68-19.15-3.92-13.3-12.08-22.92-23.51-30.52-8.43-5.61-16.29-12.12-24.12-18.58-13.42-11.07-28.27-13.74-44.93-9.14-10.08,2.79-20.37,4.89-30.63,7-17.28,3.56-25.05-2.85-24.77-20.5a143,143,0,0,1,1.6-16.87c1.42-10.37-.43-14-10.07-18.06-2.25-.95-3-2.3-2.87-4.57.42-6.21,3.26-11,9.09-13.18s11.68-3,16.78,1.93c6.92,6.73,13.64,13.68,21.1,19.84,4.77,3.93,9.81,7.47,15.85,9.23,6.54,1.91,11.84-.09,15.5-5.79,9.18-14.26,6.81-20.48-9.61-25.09-7.36-2.06-14.8-3.87-22.09-6.18-5.92-1.87-7-3.8-5.33-9.61,2.41-8.39,2-16.35-1.79-24.26-2.89-6-1.54-11.63,2.06-17,4.67-6.93,10.24-13.13,15.63-19.46,9.08-10.69,15.81-23.09,24.62-33.94,13.74-16.91,31.57-28.94,49.92-40.22A408.84,408.84,0,0,1,416,150.89c4.69-2.11,5.15-3.82,2.09-7.91-10.53-14.06-22.26-26.94-36.54-37.33a15.31,15.31,0,0,0-9.66-3.23c-6.48,0-13-.46-19.15-2.77-4.24-1.58-6.65,1.35-8.92,3.81-5.75,6.25-11.21,12.76-16.79,19.16A54.88,54.88,0,0,1,315.4,132.8c-4.1,2.64-7.8,2.17-11.2-1.38a40.3,40.3,0,0,1-7.66-11.62c-3-6.73-1.65-11.3,4.66-15.33,7.63-4.87,16.36-7.37,24.53-11.06,7.73-3.49,15.55-6.89,20.78-14.12,3.77-5.22,2.93-9.48-2.66-12.82-4.09-2.44-8.75-3.06-14.43-4.53,8-3.1,14.28-7.61,22.64-2.6,6.5,3.9,14,6,20.62,10.71-2.23,2.54-5.39,2.73-7.91,4-4.57,2.38-9.39,4.36-13,8.18-4.54,4.77-3.35,10,2.9,12A40.13,40.13,0,0,0,363.93,96c12.62.94,25.29,1.7,37.74-1.36,11-2.7,13.57-10.31,6.73-19.36a17.79,17.79,0,0,0-2.49-3.11c-6-4.87-9.73-10-6.29-18.52,1.65-4.07-1.11-8.35-4.77-12.17l8.2-1.74c-.61.94-.4,1.69.13,2.71,2.61,5,3.86,10.35,1.68,15.83-1.14,2.87-.17,4.6,1.85,6.49,3.9,3.63,7.49,7.46,9.74,12.5,3.94,8.87.33,18-8.76,21.58-6.07,2.39-12.5,3-19.28,4.06,5.59,5.12,11.1,9.82,16.2,14.92a199.47,199.47,0,0,1,18.3,21.7c5.23,7,3.84,13-4.09,16.53a414.11,414.11,0,0,0-45.05,23.62c-19.59,11.8-38.35,24.74-52.35,43.19-7.31,9.64-13.48,20.13-21.25,29.48-5,6-9.78,12.16-14.68,18.23-3.8,4.71-4.69,9.6-1.87,15.26a28.78,28.78,0,0,1,1.81,22.73c-1.49,4.35.24,5.91,4.1,6.93,8.19,2.16,16.4,4.28,24.43,6.92,13.1,4.32,16.91,14.17,10.39,26.33-2.75,5.12-5.59,10.2-11.32,12.85-10.17,4.7-18.56,0-26.49-5.3-9.72-6.5-17.51-15.31-25.81-23.47-4.43-4.36-12.17-3.21-15.59,2-1.32,2-1.13,3,1,4.33,9.88,6.06,12.09,12.24,10.4,23.87-1.16,8-2.66,16.05-.62,24.24,1.12,4.53,3.71,6.18,8.14,6.39,8.11.38,15.83-1.68,23.55-3.54,10.49-2.53,20.93-5.37,31.68-6.3,7.56-.66,14.8,1.48,21.55,5C353.19,395.12,363,405,374.14,413.1c7.73,5.67,16.07,10.59,21.31,19.15a73.51,73.51,0,0,1,7.12,15.86c2.95,9.18,9.53,13.82,17.83,17.44,10.63,4.65,22.27,6.87,32,13.55,10.19,7,15,16.9,16.6,28.82,2.58,19.1-2.29,37.2-7,55.36-2.13,8.21-2.7,16.68-4.07,25A68.15,68.15,0,0,1,443.07,621.48Z"/><path class="cls-5" d="M583,227.66c-9,2.24-17.81,5-26.61,8-15.78,5.3-25.47,16.76-33.32,30.57-10.19,17.95-17.42,36.92-20.55,57.36-3.75,24.5-1.28,48.2,11.22,70,6.64,11.56,18.66,18.46,34.2,16.32,10.42-1.45,20.43-4.32,30.5-7.05a47.58,47.58,0,0,1,15.83-1.3c6.5.44,11,7.15,11.76,16.29,1.09,13.21,2.42,26.41,5.09,39.42,1,4.74,2.4,9.35,5.43,13.27,4.07,5.26,5.82,11.11,4.45,17.71-1.07,5.15-1.43,10.49-4,15.27-9-9.67-11.44-21.85-13-34.35-1.34-10.89-2.44-21.82-4-32.68-2-13.81-9.25-19.71-23.2-19.07-11.92.55-23,5.11-34.54,7.52a101.39,101.39,0,0,1-17.75,2.55c-16.31.48-28.14-6.75-35.69-21-10.63-20.06-13.75-41.65-11.51-63.92,3-29.93,14-57,31.18-81.61,6.64-9.55,15-16.78,25.87-21.18C550,233.39,565.9,228.15,583,227.66Z"/><path class="cls-5" d="M349,736.48c2.1-9,3.79-18,7.59-26.56,6.8-15.33,15.26-29.42,27.42-41.15,5-4.85,6.41-11.58,7.84-18,2.72-12.21,7.38-23.58,15-33.39,11.44-14.69,16.85-31.18,18.37-49.61.89-10.83,4.3-21.43,6.16-32.2,2-11.25,3.25-22.58.81-34-2.31-10.87-8.76-17.95-19-21.91-5.73-2.21-11.37-4.68-17-7.1C386,468.15,378.72,461,376.07,450c-3.11-12.93-11.52-21.59-21.61-29.46-8.85-6.91-17-14.77-25.4-22.21,5.5.73,9.92,3.8,14.09,7,11.31,8.77,22.47,17.73,34.12,26.07a28.42,28.42,0,0,1,10.08,13.36c1.24,3.27,2.58,6.49,3.83,9.75,3.72,9.64,10.15,16.77,19.69,20.81,7.65,3.24,15.37,6.34,23.18,9.17,16,5.82,22.46,14.55,22.83,31.73.26,11.76-2.14,23.17-5,34.47-2.68,10.65-5.09,21.32-6.18,32.29-1.3,13.19-7.16,24.61-15.53,34.57-11.36,13.53-19.43,28.52-23.16,45.84-1.12,5.2-4.28,9.1-8.16,12.79-17.67,16.83-30.84,36.59-37.55,60.24-.91,3.22-1.77,4.23-4.88,2.84C354,738.22,351.48,737.41,349,736.48Z"/><path class="cls-6" d="M619.84,631.49c-.86.72-.83,1.72-.88,2.72-.44,7.91-.55,7.57-8,9.81-3.36,1-6.2,3.75-10,1.41a3.64,3.64,0,0,1,.87,0c1.42-.56,3-.81,4.13-1.94,9.2-2.79,9.57-2.86,7.91-12.06-2.57-14.25-6.14-28.44-12.46-41.4-6.57-13.46-6.64-26.89-3.76-40.77,1.89-9.09,4.39-18.07,7-27,1.91-6.66,1.56-12.63-2.94-18.23-6.53-8.1-8.21-18-9.65-27.88-1.88-12.78-3.13-25.65-5.09-38.41-1.06-6.82-2.13-7.34-8.92-7.23-10.29.16-19.73,4.32-29.62,6.35-11.2,2.29-22.26,4.51-33.95,2.95-18.62-2.47-30.27-13.57-38.23-29.3-10.14-20-13.47-41.66-12.1-63.88a169.68,169.68,0,0,1,15.34-60c7.31-16.06,15.89-31.37,27.83-44.55,3.23-3.56,7.32-6.12,11.47-9.22-10.78-5.93-15-15.31-15.85-26.76-1.1-15.32,6.6-22.18,18.58-26.48,5.13-1.84,10.6-2.74,15.8-4.43,2-.66,5.3-1,5.21-3.77-.07-2.41-2.87-3.19-5-4.25-2.85-1.42-5.89-1.06-8.74-1.28-11.09-.88-17.41-7.22-19.78-17.33-3.05-13-.81-25.25,8.45-35.34,8-8.74,21.64-7.33,29.69,2.56,3.35,4.12,6.8,8.19,12.12,10,1.49.51,2.9,1,4.26,0,2-1.52-.25-2.66-.63-3.75-3.17-9,1.37-15.65,6.88-21.57,13.88-14.94,29.31-27.61,50.34-31.11A3.61,3.61,0,0,0,623,67.56l11.58,5.55c-9.94.91-18.34,2.26-26.24,5.67-14.37,6.19-26.23,15.74-36,27.79-7,8.62-5.94,13.52,3.29,19.21-7.93,8.79-20.44,8.14-29-1.5a84.89,84.89,0,0,0-6.38-7c-6.62-6-14.68-5.44-20,1.68-7.1,9.48-8.4,20.16-4.37,31.21,2.48,6.82,8,10.3,15.16,10,5.34-.2,9.8,1.57,14,4.37,5.95,4,5.43,11.39-1.1,14.29-3.62,1.61-7.57,2.48-11.39,3.61-2.87.84-5.85,1.36-8.65,2.38-7.9,2.86-14.58,7-15,16.59-.46,11,2.32,20.55,12.84,26.14,4.75,2.52,10,2.15,15.16,1.84.93-.26,2.08-1,2,.91-21.38,6.26-34.34,21.75-44.69,40.32-16.2,29.06-26,59.74-24.1,93.39a108.08,108.08,0,0,0,13.28,47.14c10,18,27.66,26,48.54,22.88,13.36-2,26.14-6.44,39.38-8.86a46.06,46.06,0,0,1,6.93-.76c8.93-.2,13.38,3.29,14.7,12.11s1.88,17.52,3.16,26.23c1.83,12.44,1.49,25.88,9.46,36.26,7.3,9.49,6.71,18.7,3.76,29.06-3.31,11.64-7,23.23-7.69,35.5a38.82,38.82,0,0,0,3,18.45A222.47,222.47,0,0,1,619.84,631.49Z"/><path class="cls-4" d="M548.92,66.42c-8.65,3.31-17.87,3.65-26.87,5.09a106.51,106.51,0,0,0-17,3.71,39.27,39.27,0,0,0-19,13.13c-4.43,5.59-8.87,11.23-14.8,15.4-4.11-.2-5.71-1.72-5.8-6.08-.08-3.66.08-7.32.13-11,.1-7.06-2.16-13-7.66-17.65A25,25,0,0,1,455,66.29c-3.49-4.07-2.89-8.19,1.88-10.65,7.19-3.71,15.18-4.77,23-6.33,11.63-2.31,23.48-2.45,35.23-2.9A117.41,117.41,0,0,1,543.36,49a24.46,24.46,0,0,1,7.92,2.91c5.86,3.59,6.1,8.66.57,12.67A13,13,0,0,1,548.92,66.42Z"/><path class="cls-3" d="M830,359.36c-1.22,26.06-9.64,50.39-18.45,74.54-9.6,26.32-22.83,50.83-38.42,74.07-2.21,3.31-4.56,6.53-6.85,9.79-.56.81-1.06,1.82-2.3,1.43-1-.3-1-1.2-1.07-2-1.15-14.91-2.51-29.81,3.93-44.07a72.36,72.36,0,0,1,13.19-19.17c9.14-9.89,19.63-18.49,28-29.1,5-6.28,9.29-12.93,11.5-20.74,4.17-14.76-2.34-26.1-17.2-29.92-1.24-.32-2.46-.7-4.43-1.26,7.62-4.77,15.1-8.64,21.79-13.74,2.24-1.7,4.81-3,6.82-5,2.56-2.47,2.25.66,3.2,1.34C829.85,356.8,830,358.08,830,359.36Z"/><path class="cls-7" d="M545.06,226.67c7.64-3,13.07-9,19.27-14A50.88,50.88,0,0,1,578.86,204c11-4,18.62-2.19,26.58,6.35s16.58,6.43,20.32-4.62c.8-2.37,0-6.3,2.7-6.75,2.46-.41,4,3.1,5.66,5.13,4.49,5.57,8.75,11.32,13.22,16.92,4.26,5.34,7.3,6.12,13.44,3,4.44-2.25,9-3.31,13.32-.78,8.89,5.15,18.75,6.52,28.55,8.33a62.11,62.11,0,0,1,8.22,2c7.7,2.54,9.94,6.09,9.29,14.23-.5,6.15-3.78,9.42-9.92,9.58-7.89.2-15.41-2.34-23.15-3.33q-30.45-3.9-61.08-5.55A76.78,76.78,0,0,1,613.17,247c-4.67-1.06-7.38-4-7-8.88.89-12.59-6.87-17-18-17.58-13.84-.72-27,2.67-40.15,6.61-.64.19-1.3.31-1.94.46C545,228.08,544.88,227.55,545.06,226.67Z"/><path class="cls-5" d="M764.89,354.58c16.55-8,32.48-16.87,42.89-32.77,4.28-6.53,3-11.74-3.72-16.12-7.36-4.83-15-9.2-22.46-13.88-4.78-3-9.72-5.77-13.75-9.83-1.69-1.7-2.7-3.48-1.09-5.7,1.74-2.42,3.9-2,6.17-.75,3,1.72,6.08,3.39,9.13,5.08-.53,4.83,2.42,7.71,5.78,10.36,9.22,7.25,19.61,12.58,29.81,18.21,3.34,1.84,5.33,4,5.9,7.89.75,5.1,1.82,10.16,3,15.16.73,3-.22,5-2.45,6.94A172.72,172.72,0,0,1,784.47,365C775.35,369.36,769.4,365.94,764.89,354.58Z"/><path class="cls-6" d="M585.13,52.41c-.78.26-1.67.39-1.94,1.35-3.75,13.43-14.7,19.1-26.22,23.86-10.84,4.48-22.56,5.18-34,7-8.18,1.27-16.63,2.11-23.09,8.12-2.89,2.69-5.25,6-7.89,8.91-8,9-16,17.86-28.29,21.22-11.36,3.11-21.88-5.27-20.9-17,.68-8.09,1.65-16.15-.71-24.16a16.85,16.85,0,0,0-5.53-8.54c-5.36-4.53-11.47-8.68-11.68-17.06-.18-7.5,4.28-11.47,9.9-14.84,5.33-3.19,11.5-4.05,18.25-6.31l-6.2-.5c7.18-1.74,14.48-.53,21.72-.8,5.78-.23,11.58,0,17.37.1,1,1.19,3.5-.9,3.87,1.73a210.05,210.05,0,0,0-45.51,8.25,28.12,28.12,0,0,0-9,4.16c-5.46,4.1-6.14,9.45-1.73,14.63a24.36,24.36,0,0,0,5.1,4.74c6.59,4.25,9.43,10.61,10.29,18a80.46,80.46,0,0,1-.18,19.43c-1.17,9.28,5.48,15,14.5,12.29a39.68,39.68,0,0,0,21.21-16c11.21-16.78,27.47-21.77,46.08-23.5,14.16-1.32,28-4.21,39.41-13.78,2.72-2.28,5.79-4.71,6.45-8.06C577.67,49,581.1,50.37,585.13,52.41Z"/><path class="cls-8" d="M548.92,66.42c.77-.87,1.51-1.76,2.31-2.59,5.23-5.38,4.52-8.91-2.49-11.82-4.33-1.79-9-2.25-13.57-2.91-13.88-2-27.79-1.18-41.65-.07a135.57,135.57,0,0,0-29.76,5.41,7.55,7.55,0,0,0-1,.17c-3.26,1.4-7.58,1.64-8.71,5.71s2.6,5.84,5.08,7.83c9.38,7.53,8.07,17.94,7.63,28-.17,3.81.39,6.57,4.46,7.58a22.07,22.07,0,0,1-10,6.27c-4.21,1.26-6-.25-5.46-4.68,1.05-8.13,1.28-16.19-.44-24.27-1.69-7.93-5.18-14.6-12.14-19.27-2.24-1.5-5.52-3.13-5.09-6.21s4-3.67,6.61-4.5c18.95-6,38.44-8.78,58.27-9.47,6.24,1.24,12.46-.36,18.71-.17,4.06.13,8.16,1.56,12.25.15A93.11,93.11,0,0,1,563.82,46c7.84,2.47,8.54,5.91,2.45,11.33C561.27,61.75,555.61,65.11,548.92,66.42Z"/><path class="cls-5" d="M673.07,96.43c-8.07,0-16.16.23-24.21-.19-16.74-.87-32.38,1.8-45.78,12.72-5.41,4.41-10.67,9-14.92,14.57.38-3.79-1.57-5-5.08-4.91-2.72,0-6.44,1-7.66-2-1.13-2.76,1.77-5.18,3.57-7.24,17.58-20,39.12-31.13,66.37-29.11a9.14,9.14,0,0,1,3.82.86C657.36,85.91,665.71,90.4,673.07,96.43Z"/><path class="cls-5" d="M136,256.51a107.91,107.91,0,0,1,14.73,19.28c8.26,14.34,10.62,29.64,8.28,45.94-1.95,13.57,1.59,25.51,11.85,35.08a30,30,0,0,1,2.25,2.63c-15.3-3.67-26.56-15.32-28-29-.17-5,.18-10,0-14.94,2.88-17.79-1.71-33.77-11.48-48.61C131,263,134.86,259.91,136,256.51Z"/><path class="cls-5" d="M393.85,153.3c-8-11-16.15-21.77-26.37-30.83-6.16-5.46-12.77-10-21.25-10.86,5.87-7.54,11.6-9.19,20.48-5.86,6.78,2.55,12.52,6.78,18,11.41a188.47,188.47,0,0,1,24,25.14c1.73,2.14,2.21,3.25-.89,4.5C403,148.71,398.49,151.11,393.85,153.3Z"/><path class="cls-5" d="M555.9,167.6a19.93,19.93,0,0,1,9.28,5.49A10.08,10.08,0,0,1,564,188.24c-3.41,2.66-7.52,3.36-11.47,4.57-.15,0-.3.14-.46.17-17.56,3.54-21.92,10.85-15,28.51C530.83,223.66,525,223,520.59,218a19.64,19.64,0,0,1-4.05-19.13c1.15-4,4.9-5.77,8.59-6.92,5.85-1.82,11.88-3.1,17.7-5C553.16,183.56,556.43,178.51,555.9,167.6Z"/><path class="cls-9" d="M359.68,85.43c3.87-3.58,8.86-5,13.53-7.07,3.24-1.41,6.55-2.85,7-7s-2.27-6.48-5.25-8.39a112.77,112.77,0,0,0-10-5.49c-3.19-1.6-6.49-3-10.71-4.9a197.07,197.07,0,0,1,24.54-7.25c5.89.35,9.27,3.11,8.37,9.07-1.18,7.7,1.44,13.61,5.11,19.93,4.87,8.41,2.16,13.18-7.43,14.26-7.06.8-14.17,1-21.18-.65C362,87.57,360.28,87.39,359.68,85.43Z"/><path class="cls-5" d="M546,133.45c-7.29,4.81-7.41,12.48-8,20-2.47,0-4.82-.73-7.39-.47a7.74,7.74,0,0,1-8.46-5.62c-2.81-8.38-1.81-16.47,3.28-23.73,2.95-4.23,6.6-4.35,10.55-.57C539.49,126.36,542.68,130,546,133.45Z"/><path class="cls-6" d="M754.09,350.38c-5.84-9.63-14.32-17-21.5-25.54A55.49,55.49,0,0,1,724.11,312c-.84-1.83-1.77-3.72.29-5.41s3.63-.32,5.19,1a170.67,170.67,0,0,1,15.15,15.16c6.87,7.62,7.85,17.38,10.44,26.59C755.47,350.36,755,350.63,754.09,350.38Z"/><path class="cls-10" d="M359.68,85.43c9,4.43,18.37,3.93,27.67,1.76,6.29-1.46,7.42-4.84,4.6-10.87a8.14,8.14,0,0,0-.91-1.76c-4.8-5.89-7-12.17-5.2-20,1.13-4.91-2.24-8-7.08-9.19,4.52-2.19,8.47-.81,11.91,2.25s2.36,6.89.89,10.19c-2.45,5.5-.86,9.44,3.29,13.24a73.1,73.1,0,0,1,8.36,9.22c3,3.93,2.38,5.78-2.25,7.22a39.05,39.05,0,0,1-7.81,1.5,143.72,143.72,0,0,1-32.84-.56c-1-.15-2.65-.06-2.8-1.43C357.4,86,358.63,85.53,359.68,85.43Z"/><path class="cls-8" d="M331.91,82.3c-4.7-4-10.58-4.22-16.24-4.65-5.91-.46-11.87-.2-17.81-.25,11.37-8.47,23.81-11.07,37.49-6.86,2.2.68,5.33.76,5.89,3.11.64,2.72-2.47,3.95-4.31,5.45A45.48,45.48,0,0,1,331.91,82.3Z"/><path class="cls-10" d="M807.92,282.59q-9.78-28.12-19.54-56.26a14,14,0,0,1-.4-2.91c9.19,15.19,15.91,31.53,22.1,48.1,1.66,4.44,3.15,9,4.93,14.05A14,14,0,0,1,807.92,282.59Z"/><path class="cls-8" d="M583.68,129.41c.57,3,2.26,5.62,2.32,8.74.12,7-5.16,11.67-11.93,10.14-5.39-1.21-10.29-3.54-13.11-8.77C569.87,139.15,577,134.77,583.68,129.41Z"/><path class="cls-11" d="M753.69,372.58c-9.9,1.27-9.52-2.34-10.69-8.91a187.6,187.6,0,0,0-5.14-22C746.75,350.13,753.11,359.87,753.69,372.58Z"/><path class="cls-11" d="M316,140.67c-1.73,2.79-4.47,4.43-7.22,5.9-3.52,1.9-7.25,1.69-10.18-1.07a35,35,0,0,1-10.52-20.34c-.21-1.26-.26-2.69,1-3.65,2.71,4.5,5,9.24,8.47,13.27C302.55,140.58,308.44,143.16,316,140.67Z"/><path class="cls-12" d="M819.2,301.86c-10.69-6-21.3-11.11-30.25-19.48,2.32-1.43,3.19,0,4.22.63,6.46,3.76,12.89,7.7,20,9.92C817.7,294.33,819,297.1,819.2,301.86Z"/><path class="cls-11" d="M718,316.52a26.28,26.28,0,0,1-7.36-11.44c-1.15-3.34-1.1-6.49,2.15-8.22s6.39-.71,8.23,2.86C715,304.42,715.15,310.23,718,316.52Z"/><path class="cls-13" d="M534,41.6c-1.81,1.75-4.09,1-6.11.91-8.28-.41-16.64,1.23-24.85-.89A145.64,145.64,0,0,1,534,41.6Z"/><path class="cls-14" d="M310.12,346.72c1.95-5.84.07-10.22-5.13-13.31,3.5.33,7.63.69,8.88,4.15S312.5,344.09,310.12,346.72Z"/><path class="cls-15" d="M757,488.5a57.71,57.71,0,0,1,0,22.94C756.08,503.8,755.72,496.15,757,488.5Z"/><path class="cls-16" d="M145.12,315.54a25.12,25.12,0,0,1,0,14.94A30.71,30.71,0,0,1,145.12,315.54Z"/><path class="cls-17" d="M326,397.59a12,12,0,0,1-9.95,0A16.8,16.8,0,0,1,326,397.59Z"/><path class="cls-18" d="M317.11,667.45a25.51,25.51,0,0,1,0,15A90,90,0,0,1,317.11,667.45Z"/><path class="cls-19" d="M545.06,226.67l1,1-7.23,2.71-2-.91Z"/><path class="cls-20" d="M754.09,350.38l1.09-1.05,2.09,5.13C754.94,353.22,754.61,351.73,754.09,350.38Z"/><path class="cls-7" d="M606,643.44c-.8,1.87-2.36,2.12-4.12,1.94A6.25,6.25,0,0,1,606,643.44Z"/><ellipse class="cls-21" cx="254.53" cy="316.01" rx="6.23" ry="0.31"/><path class="cls-22" d="M267.71,281.37a4,4,0,0,1-.44-3.69C268.78,278.78,267.39,280.15,267.71,281.37Z"/><path class="cls-23" d="M758.22,534.21V520.5h.49v13.73Z"/><path class="cls-24" d="M301.08,114.89c-.16-3.19,1.44-4.3,3.17-5.43,6.85-4.48,14.74-6.66,22.12-10,5-2.24,10-4.38,14.56-7.46,1-.7,2-1.49,2.82.1.53,1.06,1.73,2.12.16,3.47-10,8.52-17.08,19.77-26.84,28.56-6.4,5.76-7.71,5.84-12.32-1.51C303.09,120,301.41,117.3,301.08,114.89Z"/><path class="cls-25" d="M353.33,66.31l6.4,3.15C354.75,73.17,354.7,73.15,353.33,66.31Z"/><path class="cls-24" d="M606,219.39c12.46,4.25,16.64,2.67,25-9.83,3.05,4.06,5.85,8.09,9,11.86,4.4,5.35,8.39,11.42,16.92,10.2a17.92,17.92,0,0,0,6.94-2.57,7.66,7.66,0,0,1,8.48-.16c9,5.58,19.35,6.64,29.4,8.54a63.66,63.66,0,0,1,8.61,2.39c3.45,1.17,4.93,3.6,4.27,7.37s-3.06,4.84-6.46,4.34c-7.2-1.06-14.39-2.19-21.58-3.31-11.46-1.79-23-2.75-34.55-3.7q-17.57-1.44-35.14-2.81c-3.71-.28-5.27-2-5-5.81.51-6-2.17-10.93-6-15.35-.3-.27-.4-.53-.28-.79S605.9,219.39,606,219.39Z"/><path class="cls-26" d="M606,219.39c0,.39,0,.78,0,1.16-10.45-7.59-22.32-6.41-34.7-5.09,11.71-9.52,23.65-11,31.15.61C603.27,217.4,604.79,218.29,606,219.39Z"/></svg>