<svg id="Layer_1" data-name="Layer 1" xmlns="http://www.w3.org/2000/svg" viewBox="0 0 200.41 53.61"><defs><style>.cls-1{fill:#fff;}</style></defs><circle class="cls-1" cx="26.47" cy="27.2" r="22.16"/><path d="M37.15,19.36c-4.67,2.29-9.21,4.57-13.8,6.75a11.68,11.68,0,0,1-3.54,1c-2.56.31-4.1-1.17-4-3.77a8,8,0,0,1,2.54-5.56C23.47,12.73,32.65,13.43,37.15,19.36Z"/><path d="M12.32,36.23l28-18.16.27.25a28.79,28.79,0,0,1-2,2.51,1.84,1.84,0,0,0-.44,2.25,13,13,0,0,1-8.64,16.86A3.25,3.25,0,0,1,29,40a28.7,28.7,0,0,0,2.81-2.52,4.08,4.08,0,0,0,.61-4.92,3.74,3.74,0,0,0-4.36-1.63,34.57,34.57,0,0,0-5,1.57c-3.51,1.32-7,2.72-10.47,4.09Z"/><path d="M26.12,19.16c-.77-1.16-1.62-2.44-2.36-3.57l5.42-1Z"/><path class="cls-1" d="M65.27,36.42a7.75,7.75,0,0,1-3.41-.75,8.19,8.19,0,0,1-2.68-2.06,9.72,9.72,0,0,1-1.73-3,10.07,10.07,0,0,1-.61-3.5,10.74,10.74,0,0,1,.61-3.64,9.35,9.35,0,0,1,1.75-3,8.29,8.29,0,0,1,2.68-2.07,7.71,7.71,0,0,1,3.43-.75,7.17,7.17,0,0,1,4,1.1,10.07,10.07,0,0,1,2.85,2.82V17.91h2.73v18a7.37,7.37,0,0,1-1.24,4.35A7.84,7.84,0,0,1,70.26,43a11.74,11.74,0,0,1-4.71.92,10.28,10.28,0,0,1-5-1.09,9.44,9.44,0,0,1-3.25-2.94L59,38.28a6.72,6.72,0,0,0,2.82,2.41,8.57,8.57,0,0,0,3.69.81,7.9,7.9,0,0,0,3.1-.6,5.08,5.08,0,0,0,2.27-1.82A5.19,5.19,0,0,0,71.78,36V32.78A7.33,7.33,0,0,1,69,35.44,7.51,7.51,0,0,1,65.27,36.42Zm1-2.52a5.11,5.11,0,0,0,1.89-.35,7.23,7.23,0,0,0,1.68-.92,6.19,6.19,0,0,0,1.29-1.32,4.25,4.25,0,0,0,.7-1.5V24.56a6.75,6.75,0,0,0-1.4-2.22,6.68,6.68,0,0,0-2.06-1.51,5.58,5.58,0,0,0-2.38-.54,5.28,5.28,0,0,0-2.51.59,5.86,5.86,0,0,0-1.87,1.6A7.8,7.8,0,0,0,60,27.18a6.77,6.77,0,0,0,.49,2.58,7.53,7.53,0,0,0,1.33,2.15,5.93,5.93,0,0,0,2,1.47A5.83,5.83,0,0,0,66.22,33.9Z"/><path class="cls-1" d="M89.49,20.5a7.56,7.56,0,0,0-4.08,1.17,6.2,6.2,0,0,0-2.5,3.13V36.07H79.83V17.91H82.7V22A8.59,8.59,0,0,1,85.2,19a6.24,6.24,0,0,1,3.28-1.32h.59a1.71,1.71,0,0,1,.42,0Z"/><path class="cls-1" d="M91.1,30.82a4.77,4.77,0,0,1,1-3,6.44,6.44,0,0,1,2.75-2,11,11,0,0,1,4.06-.7,18.45,18.45,0,0,1,2.59.2,11.69,11.69,0,0,1,2.41.57V24.6a4.26,4.26,0,0,0-1.26-3.26,5,5,0,0,0-3.57-1.19,7.93,7.93,0,0,0-2.89.54,15.85,15.85,0,0,0-2.92,1.56l-1.12-2.17a14.8,14.8,0,0,1,3.57-1.84,11.32,11.32,0,0,1,3.71-.61A7.7,7.7,0,0,1,105,19.55a7,7,0,0,1,2,5.36v7.67a1.24,1.24,0,0,0,.23.82,1,1,0,0,0,.75.29v2.38c-.3,0-.56.09-.78.11l-.55,0a2.07,2.07,0,0,1-1.62-.59,2.21,2.21,0,0,1-.62-1.26l-.07-1.16a7.74,7.74,0,0,1-3.11,2.38,9.53,9.53,0,0,1-3.82.84,7,7,0,0,1-3.25-.74,5.64,5.64,0,0,1-2.24-2A5.17,5.17,0,0,1,91.1,30.82ZM103,32.1a4.88,4.88,0,0,0,.67-1,2.09,2.09,0,0,0,.24-.85V28a13.81,13.81,0,0,0-2.27-.64,12.7,12.7,0,0,0-2.35-.22,7.06,7.06,0,0,0-3.8.92A2.85,2.85,0,0,0,94,30.58a3.25,3.25,0,0,0,.48,1.68,3.53,3.53,0,0,0,1.4,1.33,4.56,4.56,0,0,0,2.29.52,6.75,6.75,0,0,0,2.73-.57A5.83,5.83,0,0,0,103,32.1Z"/><path class="cls-1" d="M116.58,36.07l-7.17-18.16h3.22l5.74,15.24,5.74-15.24h3l-7.18,18.16Z"/><path class="cls-1" d="M130.2,14.37V10.52h3.08v3.85Zm0,21.7V17.8h3.08V36.07Z"/><path class="cls-1" d="M147.7,35.27l-1,.45a9.65,9.65,0,0,1-1.54.49,7.91,7.91,0,0,1-1.86.21,5.18,5.18,0,0,1-2.06-.4,3.37,3.37,0,0,1-1.51-1.26,3.88,3.88,0,0,1-.56-2.15V20.32h-2.48V17.91h2.48V11.82h3.08v6.09h4.1v2.41h-4.1V31.66a2,2,0,0,0,.67,1.46,2.21,2.21,0,0,0,1.4.47,4.37,4.37,0,0,0,1.68-.32q.77-.32,1-.45Z"/><path class="cls-1" d="M160.93,36.25a10.63,10.63,0,0,1-4.76-1,11.66,11.66,0,0,1-3.69-2.85,13.36,13.36,0,0,1-3.24-8.7,12.84,12.84,0,0,1,.89-4.74,13.35,13.35,0,0,1,2.49-4,11.92,11.92,0,0,1,3.73-2.8,10.49,10.49,0,0,1,4.65-1,10.38,10.38,0,0,1,4.76,1.08A12,12,0,0,1,169.44,15a13.81,13.81,0,0,1,2.38,4.06,12.93,12.93,0,0,1,.84,4.58,13.13,13.13,0,0,1-.88,4.75,13,13,0,0,1-2.47,4,11.64,11.64,0,0,1-3.72,2.78A10.7,10.7,0,0,1,160.93,36.25Zm-8.5-12.6a11.07,11.07,0,0,0,.61,3.66,10.15,10.15,0,0,0,1.73,3.13,8.49,8.49,0,0,0,2.7,2.17,8,8,0,0,0,7.07,0,8.24,8.24,0,0,0,2.67-2.24,10,10,0,0,0,1.68-3.15,11,11,0,0,0,.58-3.53,10.87,10.87,0,0,0-.61-3.64,10.27,10.27,0,0,0-1.75-3.14,8.27,8.27,0,0,0-2.7-2.16,7.44,7.44,0,0,0-3.44-.79,7.55,7.55,0,0,0-3.57.82A8.22,8.22,0,0,0,154.72,17,10.6,10.6,0,0,0,153,20.1,10.75,10.75,0,0,0,152.43,23.65Z"/><path class="cls-1" d="M191.63,16.44a5.46,5.46,0,0,0-1.12-1,9.74,9.74,0,0,0-1.58-.82,11.43,11.43,0,0,0-1.9-.59,9.54,9.54,0,0,0-2.16-.23,6.78,6.78,0,0,0-4.23,1.08,3.58,3.58,0,0,0-1.37,3A3,3,0,0,0,180,20a5.16,5.16,0,0,0,2.15,1.26c1,.32,2.2.66,3.7,1a24.62,24.62,0,0,1,4.48,1.36,6.87,6.87,0,0,1,2.9,2.14,5.78,5.78,0,0,1,1,3.58,6.52,6.52,0,0,1-.69,3.09,6,6,0,0,1-1.9,2.16,8.61,8.61,0,0,1-2.87,1.26,15,15,0,0,1-3.57.4,17.55,17.55,0,0,1-3.7-.4,15.62,15.62,0,0,1-3.41-1.18,14.48,14.48,0,0,1-3-1.92l1.51-2.66A7.23,7.23,0,0,0,178,31.26a13.27,13.27,0,0,0,2,1.07,13.74,13.74,0,0,0,2.47.79,12.28,12.28,0,0,0,2.73.29,7.63,7.63,0,0,0,4.13-.95,3.15,3.15,0,0,0,1.47-2.81,3,3,0,0,0-.83-2.23A6.06,6.06,0,0,0,187.6,26c-1.07-.37-2.38-.74-3.92-1.11a27,27,0,0,1-4.23-1.38,6,6,0,0,1-2.58-2,5.4,5.4,0,0,1-.85-3.17,6.83,6.83,0,0,1,1.15-4,7,7,0,0,1,3.19-2.47,11.87,11.87,0,0,1,4.58-.84,12.94,12.94,0,0,1,3.13.35,12.54,12.54,0,0,1,2.72,1,12.06,12.06,0,0,1,2.31,1.5Z"/></svg>