<svg id="Layer_1" data-name="Layer 1" xmlns="http://www.w3.org/2000/svg" viewBox="0 0 174.42 176.58"><defs><style>.cls-1{fill:#fff;}</style></defs><circle class="cls-1" cx="87.29" cy="82.52" r="68.78"/><path d="M120.42,58.17c-14.47,7.12-28.57,14.2-42.82,21a36.41,36.41,0,0,1-11,3.1c-8,1-12.73-3.62-12.46-11.69a24.86,24.86,0,0,1,7.89-17.28C78,37.59,106.45,39.79,120.42,58.17Z"/><path d="M43.35,110.54l87-56.38.84.8a93,93,0,0,1-6.28,7.79c-2.18,2.19-2.41,4-1.36,7a40.22,40.22,0,0,1-26.82,52.32,10.32,10.32,0,0,1-1.6.18c3-2.68,6.23-5,8.72-7.84,4.22-4.91,4.74-10.6,1.92-15.28-3.15-5.23-8.25-6.17-13.54-5.06a110.09,110.09,0,0,0-15.67,4.88c-10.88,4.1-21.66,8.45-32.49,12.7Z"/><path d="M86.18,57.57c-2.38-3.62-5-7.58-7.32-11.1l16.85-3.08Z"/></svg>