<svg id="Layer_1" data-name="Layer 1" xmlns="http://www.w3.org/2000/svg" viewBox="0 0 80 80"><defs><style>.cls-1{fill:#272525;}.cls-2{fill:#fff;}</style></defs><circle class="cls-1" cx="40" cy="40" r="24"/><path class="cls-2" d="M51.56,31.5c-5.05,2.49-10,5-14.94,7.32a12.8,12.8,0,0,1-3.83,1.08c-2.78.34-4.44-1.26-4.35-4.08a8.72,8.72,0,0,1,2.75-6C36.75,24.32,46.69,25.09,51.56,31.5Z"/><path class="cls-2" d="M24.67,49.78,55,30.1l.29.28a32.15,32.15,0,0,1-2.19,2.72,2,2,0,0,0-.47,2.44A14.05,14.05,0,0,1,43.31,53.8c-.16,0-.33,0-.56.06a31.18,31.18,0,0,0,3-2.74,4.42,4.42,0,0,0,.67-5.33C45.36,44,43.58,43.64,41.74,44a37.62,37.62,0,0,0-5.47,1.7c-3.8,1.43-7.56,3-11.34,4.43Z"/><path class="cls-2" d="M39.62,31.29l-2.56-3.87,5.88-1.08Z"/></svg>