<svg id="Layer_1" data-name="Layer 1" xmlns="http://www.w3.org/2000/svg" viewBox="0 0 123.77 119.3"><defs><style>.cls-1{fill:#feda2d;}.cls-2{fill:#fec902;}.cls-3{fill:#dd902f;}</style></defs><path class="cls-1" d="M65.18,91.81C43.75,92.24,28.61,79,29.11,59.69,29.6,41.11,43.41,24.94,66.89,28c24.86,6.15,31.34,35.56,17.79,52A33.83,33.83,0,0,1,65.18,91.81Z"/><path class="cls-2" d="M65.18,91.81c22.6-11.49,29.63-29.71,19.35-49-4-7.5-11.39-10.36-17.64-14.87,16.36,1.59,26.52,15,27.2,33.41C94.57,74.2,80.4,92.22,65.18,91.81Z"/><path class="cls-3" d="M107.91,58l9.9-5.71-11-3a1.93,1.93,0,0,1-.87-3.25L114,38H102.55a1.94,1.94,0,0,1-1.69-2.91l5.72-9.9-11,2.95a2,2,0,0,1-1.88-.5,2,2,0,0,1-.51-1.88l3-11-9.89,5.71a1.94,1.94,0,0,1-2.92-1.68V7.34l-8.08,8.08A1.94,1.94,0,0,1,72,14.55l-3-11-5.71,9.9a1.95,1.95,0,0,1-3.37,0L54.2,3.51l-3,11a1.93,1.93,0,0,1-3.25.87L39.91,7.34V18.77A2,2,0,0,1,37,20.46l-9.89-5.72,3,11a2,2,0,0,1-2.39,2.39l-11-3,5.71,9.89a2,2,0,0,1,0,1.95,1.93,1.93,0,0,1-1.69,1H9.23L17.3,46.1a1.94,1.94,0,0,1-.87,3.26l-11,3L15.29,58a2,2,0,0,1,0,3.38L5.4,67.12l11,3a1.94,1.94,0,0,1,.88,3.25L9.23,81.41H20.65a1.93,1.93,0,0,1,1.69,1,2,2,0,0,1,0,2l-5.71,9.89,11-3a1.93,1.93,0,0,1,1.88.5,2,2,0,0,1,.51,1.88l-3,11L37,99a2,2,0,0,1,2.92,1.69v11.42L48,104a2,2,0,0,1,1.88-.51,2,2,0,0,1,1.38,1.38l3,11L59.92,106a1.95,1.95,0,0,1,3.37,0L69,115.92l3-11a2,2,0,0,1,3.26-.88l8.08,8.08V100.67A1.95,1.95,0,0,1,86.22,99l9.89,5.71-3-11a1.95,1.95,0,0,1,2.38-2.39l11,3-5.71-9.89a2,2,0,0,1,0-2,2,2,0,0,1,1.69-1H114l-8.08-8.08a1.93,1.93,0,0,1,.87-3.25l11-3-9.9-5.72a1.95,1.95,0,0,1,0-3.37ZM61.6,99.83a40.11,40.11,0,1,1,40.11-40.11A40.11,40.11,0,0,1,61.6,99.83Z"/></svg>