<svg id="Layer_1" data-name="Layer 1" xmlns="http://www.w3.org/2000/svg" viewBox="0 0 1920 1080"><defs><style>.cls-1{fill:#fff;}</style></defs><rect width="1920" height="1080"/><path class="cls-1" d="M352.23,79.22l.25-5,.12,5a1,1,0,0,0,1.43.85l4.48-2.3-4.3,2.62a1,1,0,0,0,0,1.67l4.23,2.72L354,82.38a1,1,0,0,0-1.45.82l-.25,5-.12-5a1,1,0,0,0-1.43-.85l-4.48,2.3,4.3-2.62a1,1,0,0,0,0-1.67l-4.23-2.72L350.78,80A1,1,0,0,0,352.23,79.22Z"/><path class="cls-1" d="M328.61,279.2l.41-6.64.08,6.65a1.38,1.38,0,0,0,1.88,1.15l5.95-3-5.72,3.4a1.38,1.38,0,0,0-.06,2.2l5.55,3.67-5.8-3.26a1.38,1.38,0,0,0-1.93,1.06l-.41,6.64-.08-6.66a1.39,1.39,0,0,0-1.88-1.15l-6,3,5.72-3.39a1.37,1.37,0,0,0,.05-2.2L320.88,277l5.8,3.26A1.37,1.37,0,0,0,328.61,279.2Z"/><path class="cls-1" d="M815.62,128.89l.41-6.64.07,6.65a1.38,1.38,0,0,0,1.88,1.15l6-3-5.73,3.39a1.38,1.38,0,0,0-.05,2.2l5.54,3.68-5.8-3.26a1.37,1.37,0,0,0-1.93,1.05l-.41,6.64-.08-6.65a1.36,1.36,0,0,0-1.87-1.15l-6,3,5.72-3.39a1.37,1.37,0,0,0,.06-2.2l-5.55-3.68,5.8,3.26A1.38,1.38,0,0,0,815.62,128.89Z"/><path class="cls-1" d="M492.83,623.14l.41-6.64.08,6.65a1.38,1.38,0,0,0,1.88,1.15l6-3-5.73,3.4a1.38,1.38,0,0,0-.05,2.2l5.54,3.67-5.8-3.26a1.38,1.38,0,0,0-1.93,1.06l-.41,6.64-.08-6.66a1.37,1.37,0,0,0-1.88-1.14l-5.95,3,5.72-3.39a1.37,1.37,0,0,0,.06-2.2l-5.55-3.68,5.8,3.26A1.37,1.37,0,0,0,492.83,623.14Z"/><path class="cls-1" d="M563.82,187.39l.41-6.64.08,6.65a1.38,1.38,0,0,0,1.88,1.15l6-3L566.42,189a1.38,1.38,0,0,0,0,2.2l5.54,3.68-5.8-3.26a1.37,1.37,0,0,0-1.93,1.05l-.41,6.64-.08-6.65a1.38,1.38,0,0,0-1.88-1.15l-5.95,3,5.72-3.39a1.37,1.37,0,0,0,.06-2.2l-5.55-3.67,5.8,3.26A1.38,1.38,0,0,0,563.82,187.39Z"/><path class="cls-1" d="M454.51,905.28l.41-6.64.08,6.65a1.37,1.37,0,0,0,1.88,1.15l5.95-3-5.72,3.39a1.37,1.37,0,0,0-.06,2.2l5.55,3.68-5.8-3.26a1.37,1.37,0,0,0-1.93,1l-.41,6.64-.08-6.65a1.38,1.38,0,0,0-1.88-1.15l-6,3,5.73-3.39a1.38,1.38,0,0,0,.05-2.2l-5.54-3.68,5.8,3.27A1.38,1.38,0,0,0,454.51,905.28Z"/><path class="cls-1" d="M158.76,522.72l.36-9.66.35,9.66a2,2,0,0,0,2.77,1.6l8.54-4.53-8.19,5.14a2,2,0,0,0,0,3.2l8.19,5.13-8.54-4.52a2,2,0,0,0-2.77,1.6l-.35,9.66-.36-9.66a2,2,0,0,0-2.77-1.6l-8.54,4.52,8.19-5.13a2,2,0,0,0,0-3.2l-8.19-5.14,8.54,4.53A2,2,0,0,0,158.76,522.72Z"/><path class="cls-1" d="M713.86,50.34l.36-9.66.35,9.66a2,2,0,0,0,2.77,1.6l8.54-4.53-8.19,5.14a2,2,0,0,0,0,3.2l8.19,5.13-8.54-4.52a2,2,0,0,0-2.77,1.6l-.35,9.66L713.86,58a2,2,0,0,0-2.77-1.6l-8.54,4.52,8.19-5.13a2,2,0,0,0,0-3.2l-8.19-5.14,8.54,4.53A2,2,0,0,0,713.86,50.34Z"/><path class="cls-1" d="M1685.35,441.45l.13-3.58.13,3.58a.74.74,0,0,0,1,.59l3.16-1.67-3,1.9a.74.74,0,0,0,0,1.19l3,1.9-3.16-1.68a.75.75,0,0,0-1,.6l-.13,3.58-.13-3.58a.75.75,0,0,0-1-.6l-3.17,1.68,3-1.9a.75.75,0,0,0,0-1.19l-3-1.9,3.17,1.67A.74.74,0,0,0,1685.35,441.45Z"/><path class="cls-1" d="M185.07,56.57l.09-2.42.09,2.42a.5.5,0,0,0,.69.4l2.14-1.14L186,57.12a.5.5,0,0,0,0,.8l2.05,1.28-2.14-1.13a.5.5,0,0,0-.69.4l-.09,2.42-.09-2.42a.5.5,0,0,0-.69-.4l-2.14,1.13,2-1.28a.5.5,0,0,0,0-.8l-2-1.29L184.38,57A.5.5,0,0,0,185.07,56.57Z"/><path class="cls-1" d="M105.66,275.42l.13-3.58.14,3.58a.73.73,0,0,0,1,.59l3.17-1.68-3,1.91a.74.74,0,0,0,0,1.18l3,1.91L107,277.65a.73.73,0,0,0-1,.59l-.14,3.59-.13-3.59a.74.74,0,0,0-1-.59l-3.16,1.68,3-1.91a.73.73,0,0,0,0-1.18l-3-1.91,3.16,1.68A.74.74,0,0,0,105.66,275.42Z"/><path class="cls-1" d="M166.1,141.4l-7-.61,7-.61a14.68,14.68,0,0,0,12.09-12.1l.61-7,.61,7a14.67,14.67,0,0,0,12.1,12.1l7,.61-7,.61a14.68,14.68,0,0,0-12.1,12.09l-.61,7-.61-7A14.68,14.68,0,0,0,166.1,141.4Z"/><path class="cls-1" d="M445.43,360.61l-7-.61,7-.61a14.66,14.66,0,0,0,12.09-12.1l.61-7,.61,7a14.67,14.67,0,0,0,12.1,12.1l7,.61-7,.61a14.67,14.67,0,0,0-12.1,12.1l-.61,7-.61-7A14.66,14.66,0,0,0,445.43,360.61Z"/><path class="cls-1" d="M601.91,908.67l-8.64-.76,8.64-.75a18.2,18.2,0,0,0,15-15l.75-8.64.75,8.64a18.2,18.2,0,0,0,15,15l8.64.75-8.64.76a18.18,18.18,0,0,0-15,15l-.75,8.64-.75-8.64A18.18,18.18,0,0,0,601.91,908.67Z"/><path class="cls-1" d="M1348.81,971.4l-8.65-.76,8.65-.75a18.18,18.18,0,0,0,15-15l.76-8.65.75,8.65a18.18,18.18,0,0,0,15,15l8.65.75-8.65.76a18.18,18.18,0,0,0-15,15l-.75,8.65-.76-8.65A18.18,18.18,0,0,0,1348.81,971.4Z"/><path class="cls-1" d="M1663.24,769.14l-8.65-.76,8.65-.75a18.17,18.17,0,0,0,15-15L1679,744l.75,8.65a18.19,18.19,0,0,0,15,15l8.64.75-8.64.76a18.19,18.19,0,0,0-15,15l-.75,8.65-.76-8.65A18.17,18.17,0,0,0,1663.24,769.14Z"/><path class="cls-1" d="M1404.74,478.77l-4.7-.41,4.7-.42a9.89,9.89,0,0,0,8.16-8.15l.41-4.71.41,4.71a9.89,9.89,0,0,0,8.16,8.15l4.71.42-4.71.41a9.9,9.9,0,0,0-8.16,8.15l-.41,4.71-.41-4.71A9.9,9.9,0,0,0,1404.74,478.77Z"/><path class="cls-1" d="M1645.36,233.7l-8.65-.76,8.65-.75a18.19,18.19,0,0,0,15-15l.75-8.64.76,8.64a18.19,18.19,0,0,0,15,15l8.65.75-8.65.76a18.17,18.17,0,0,0-15,15l-.76,8.65-.75-8.65A18.17,18.17,0,0,0,1645.36,233.7Z"/><path class="cls-1" d="M1141.34,106.12l-6-.53,6-.52a12.62,12.62,0,0,0,10.39-10.4l.52-6,.53,6a12.62,12.62,0,0,0,10.39,10.4l6,.52-6,.53a12.62,12.62,0,0,0-10.39,10.39l-.53,6-.52-6A12.62,12.62,0,0,0,1141.34,106.12Z"/><path class="cls-1" d="M85.73,899.4l-8.65-.76,8.65-.75a18.18,18.18,0,0,0,15-15l.76-8.64.75,8.64a18.2,18.2,0,0,0,15,15l8.64.75-8.64.76a18.18,18.18,0,0,0-15,15l-.75,8.64-.76-8.64A18.16,18.16,0,0,0,85.73,899.4Z"/><path class="cls-1" d="M1544.23,187.39l.42-6.64.07,6.65a1.38,1.38,0,0,0,1.88,1.15l6-3-5.73,3.39a1.38,1.38,0,0,0,0,2.2l5.54,3.68-5.8-3.26a1.37,1.37,0,0,0-1.93,1.05l-.41,6.64-.08-6.65a1.38,1.38,0,0,0-1.88-1.15l-6,3,5.72-3.39a1.37,1.37,0,0,0,.06-2.2l-5.55-3.67,5.8,3.26A1.37,1.37,0,0,0,1544.23,187.39Z"/><path class="cls-1" d="M1660.92,943.63l.41-6.64.07,6.65a1.38,1.38,0,0,0,1.88,1.15l6-3-5.73,3.39a1.38,1.38,0,0,0,0,2.2l5.55,3.68-5.8-3.26a1.38,1.38,0,0,0-1.94,1l-.41,6.64-.07-6.65a1.38,1.38,0,0,0-1.88-1.15l-6,3,5.72-3.39a1.37,1.37,0,0,0,.06-2.2l-5.55-3.68,5.8,3.27A1.39,1.39,0,0,0,1660.92,943.63Z"/><path class="cls-1" d="M1034.71,998.17l.41-6.64.08,6.65a1.38,1.38,0,0,0,1.88,1.15l6-3-5.73,3.4a1.38,1.38,0,0,0,0,2.2l5.54,3.67-5.8-3.26a1.38,1.38,0,0,0-1.93,1.06l-.41,6.64-.08-6.66a1.38,1.38,0,0,0-1.88-1.15l-6,3,5.72-3.39a1.37,1.37,0,0,0,.06-2.2L1027,996l5.8,3.26A1.37,1.37,0,0,0,1034.71,998.17Z"/><path class="cls-1" d="M1290.25,750.64l.41-6.64.08,6.65a1.36,1.36,0,0,0,1.87,1.15l6-3-5.72,3.39a1.37,1.37,0,0,0-.06,2.2l5.55,3.68-5.8-3.26a1.38,1.38,0,0,0-1.94,1l-.41,6.64-.07-6.65a1.38,1.38,0,0,0-1.88-1.15l-6,3,5.73-3.39a1.38,1.38,0,0,0,0-2.2l-5.55-3.68,5.81,3.26A1.37,1.37,0,0,0,1290.25,750.64Z"/></svg>